<?xml version="1.0" encoding="UTF-8"?> <svg xmlns="http://www.w3.org/2000/svg" xmlns:xlink="http://www.w3.org/1999/xlink" width="53px" height="64px" viewBox="0 0 53 64"><!-- Generator: Sketch 53.2 (72643) - https://sketchapp.com --><title>Group 5</title><desc>Created with Sketch.</desc><g id="Symbols" stroke="none" stroke-width="1" fill="none" fill-rule="evenodd"><g id="Icon/64px/Normal/Handcrafted" transform="translate(-6.000000, 1.000000)"><g id="Group-5" transform="translate(8.000000, 1.000000)"><path d="M24.54,42.6515255 L41.8997294,38 L47.0799999,57.3330327 L37.6030946,56.7641995 L29.6802705,61.9952761 L24.54,42.8115253 L19.3997294,61.9952761 L11.4769053,56.7641995 L2,57.3330327 L7.1802705,38 L24.54,42.6515255 Z" id="Combined-Shape" fill="#EFEEEE"></path><path d="M9.96738966,45.3228512 L9.74690966,45.3228512 L9.47163372,45.0997795 C9.08509364,44.786544 8.98502151,44.4395222 8.8460989,43.6318701 C8.81358649,43.4428532 8.79178305,43.2948466 8.75185556,43.0070247 C8.70418186,42.6619129 8.68160313,42.5094355 8.64872205,42.3245177 C8.52462948,41.6266414 8.35163468,41.1932785 8.07890317,40.920948 C7.72528624,40.5672774 7.2200718,40.4172866 5.99250974,40.2490619 C5.70734068,40.2095443 5.55833053,40.1876174 5.36974547,40.1552632 C4.55967969,40.0162856 4.21499559,39.9173756 3.90184402,39.5317628 L3.82799003,39.4279446 C3.60225003,39.0635053 3.59708598,38.7387748 3.66283794,38.1457318 C3.6922624,37.880341 3.72950573,37.6494761 3.80157627,37.2453672 C4.01963552,36.0195225 4.03234342,35.4924467 3.80415123,35.0435474 C3.58735822,34.6202971 3.17174198,34.3216412 2.1940619,33.8466704 C2.11609688,33.8088632 2.11609688,33.8088632 2.03529535,33.769822 C1.77886226,33.6453459 1.64088356,33.5768385 1.46658802,33.4848377 C1.3576004,33.4273092 1.25645023,33.3715892 1.16266885,33.31698 C0.653758916,33.0206395 0.404005687,32.8273754 0.25454451,32.4169351 L0.218666918,32.2946938 C0.117342294,31.8452539 0.234163882,31.5151946 0.55220232,30.8598299 C0.581580515,30.7992918 0.61255017,30.7370687 0.645288223,30.6726454 C0.713067179,30.5392672 0.767038879,30.4370385 0.872205459,30.2405522 C0.927308435,30.1375747 0.927308435,30.1375747 0.981499614,30.035612 C1.46547726,29.1218957 1.63299381,28.6029048 1.56006574,28.1357635 C1.48248613,27.6463717 1.18203563,27.2528316 0.28215001,26.3897368 C0.0847086442,26.1994427 -0.0146331669,26.1021768 -0.144447916,25.9692349 C-0.198517778,25.9138625 -0.249990324,25.8600392 -0.299011735,25.8074789 C-0.797693181,25.2727971 -1,24.9926842 -1,24.4994704 C-1,24.0289908 -0.810951906,23.755403 -0.371596525,23.2711028 C-0.185303,23.0657519 -0.0118388872,22.8931599 0.282261292,22.6106417 C0.324068196,22.5704182 0.324068196,22.5704182 0.365456688,22.5305537 C1.18510486,21.7406212 1.48502402,21.3370479 1.55977816,20.8639432 C1.63277788,20.3978757 1.46539725,19.8799106 0.981802005,18.9669273 C0.927203429,18.8642004 0.927203429,18.8642004 0.872306116,18.7616027 C0.683231735,18.4093487 0.574502659,18.1982599 0.464879625,17.9569505 C0.223217373,17.4249876 0.127220632,17.1168265 0.219075327,16.7080702 L0.253754142,16.5888855 C0.401907984,16.1769558 0.651921654,15.9824423 1.15876811,15.6863472 C1.2533671,15.6310833 1.35548295,15.5747128 1.46561233,15.5165026 C1.63968722,15.4244932 1.77614536,15.3566711 2.03568192,15.2305473 C3.1631355,14.6855025 3.57353323,14.4020458 3.80215612,13.9561038 C3.94377154,13.6782172 3.99222667,13.3155071 3.95442515,12.8215452 C3.93415139,12.556623 3.89615133,12.2992815 3.81669892,11.8500611 C3.80832619,11.8027874 3.80832619,11.8027874 3.79991689,11.7554351 C3.77356149,11.6071897 3.75981542,11.5285091 3.74319166,11.4286553 C3.72417957,11.3144556 3.7075683,11.207923 3.6930491,11.1053781 C3.58376287,10.3335215 3.5728078,9.98078045 3.82559584,9.57395417 L3.89717252,9.47322722 C4.21053731,9.0854225 4.5556345,8.98589242 5.36551289,8.84646468 C5.55168491,8.81441352 5.6745169,8.79621819 5.99062214,8.75166902 C7.21522274,8.58411668 7.72348592,8.43294135 8.07822475,8.077156 C8.43162913,7.72453402 8.58140002,7.22054225 8.75039323,5.99145254 C8.7896802,5.70803107 8.81178535,5.55795831 8.84416045,5.36950408 C8.96201257,4.68349137 9.05125267,4.33113204 9.31099773,4.048942 C9.55861201,3.69550972 9.89624763,3.63552889 10.4112329,3.63552889 C10.7653162,3.63552889 11.0609907,3.67737475 11.7531902,3.80142717 C12.8457346,3.99481257 13.5750892,3.99729879 13.9556746,3.80365392 C14.3787171,3.58689302 14.6770554,3.17193618 15.1528902,2.19405458 C15.1907838,2.11603905 15.1907838,2.11603905 15.2291652,2.0367368 C15.3532287,1.78047785 15.4234519,1.63919379 15.5176208,1.46250174 C15.59124,1.32436767 15.6625294,1.19849192 15.7329963,1.08403272 C16.0127196,0.629679067 16.2273909,0.376631814 16.6391429,0.242382376 L16.7902212,0.193124132 L16.9491269,0.193124132 C17.3547289,0.193124132 17.728814,0.340231856 18.329091,0.64652162 C18.42175,0.694107542 18.42175,0.694107542 18.5117854,0.741281187 C18.5814625,0.777920109 18.6377811,0.80788222 18.7573454,0.871741687 C19.8384695,1.45187767 20.3713897,1.6367556 20.8644667,1.56066411 C21.3524061,1.48319462 21.7425254,1.18496684 22.6091883,0.282058519 C22.8006981,0.0834064363 22.8973729,-0.0153128839 23.0306524,-0.145408998 C23.0859943,-0.199429004 23.1397905,-0.250855703 23.1923256,-0.299833478 C23.7265682,-0.797901438 24.0065177,-1 24.4994704,-1 C24.992387,-1 25.2729179,-0.797551303 25.8069081,-0.299737792 C25.8597389,-0.250486162 25.9138326,-0.198766637 25.9694539,-0.144454746 C26.1030934,-0.0139613658 26.2061513,0.0913506837 26.3911316,0.283600031 C27.2558942,1.18446244 27.6468662,1.48297342 28.1363129,1.56046555 C28.6178061,1.63628414 29.1661535,1.4467864 30.2410449,0.873221397 C30.3586435,0.810280443 30.4151362,0.780172736 30.4849529,0.743436826 C30.5630312,0.702353872 30.6344039,0.665442227 30.7033666,0.63061711 C31.2758071,0.341543368 31.6628175,0.195252893 32.0737079,0.195252893 L32.2447834,0.195252893 L32.4061299,0.252122153 C32.8374467,0.404146859 33.0342771,0.665260796 33.3509787,1.22177908 C33.4865503,1.4600098 33.5967827,1.67846139 33.7703714,2.03794516 C34.3175304,3.16877166 34.5977692,3.57488019 35.0437765,3.80313927 C35.4248368,3.99784578 36.1598308,3.99590962 37.2449857,3.80284837 C37.9375828,3.67856963 38.2343777,3.63653616 38.5882064,3.63653616 C38.7630461,3.63653616 38.916081,3.65163331 39.0511703,3.68166453 C39.1498359,3.70593636 39.1498359,3.70593636 39.2405385,3.73778852 C39.2841801,3.75505542 39.2841801,3.75505542 39.323828,3.77318381 C39.357855,3.78983731 39.357855,3.78983731 38.9002413,3.67913216 L39.528233,3.90091213 C39.9161362,4.21393416 40.015838,4.55983509 40.1550748,5.36953543 C40.1875062,5.55813288 40.2093744,5.70654099 40.2490951,5.99282453 C40.2966594,6.33686464 40.3191058,6.48844433 40.3518008,6.67259224 C40.4759401,7.37178135 40.6488377,7.80547955 40.9220253,8.07846475 C41.2759396,8.43290542 41.7839423,8.58405108 43.0100497,8.75198529 C43.295526,8.79171777 43.444012,8.81366137 43.6325361,8.84615478 C44.4334419,8.98419637 44.7795913,9.083804 45.0926937,9.46393588 L45.1688421,9.56975245 C45.3969151,9.93471196 45.4026462,10.2604921 45.3373372,10.8544736 C45.3081109,11.1202851 45.2707787,11.3525592 45.1989505,11.7562227 C44.9816641,12.9805602 44.9692134,13.5086483 45.1980988,13.9578581 C45.4258934,14.4031291 45.8347089,14.6851005 46.9646126,15.2309813 C47.2174329,15.3535131 47.3583766,15.4234328 47.5327384,15.5154238 C47.6424051,15.5732826 47.7441648,15.6293381 47.8384663,15.6842868 C48.3494148,15.9820124 48.5993659,16.17595 48.7471361,16.5904472 L48.780446,16.70511 C48.8732768,17.1144993 48.7776484,17.4204967 48.5346917,17.9549559 C48.4254103,18.1953545 48.3203093,18.3995908 48.1275269,18.7598091 C47.5379465,19.8604237 47.3609925,20.3619204 47.4398821,20.865211 C47.5147015,21.3371857 47.8148827,21.7406652 48.6344888,22.5305513 C48.6758794,22.5704177 48.6758794,22.5704177 48.7171065,22.6100838 C49.0119346,22.8933018 49.185261,23.0657505 49.3715484,23.2710841 C49.8109388,23.7553983 49.9999896,24.028974 49.9999896,24.4994704 C49.9999896,24.9701219 49.8104175,25.2447382 49.3711951,25.729085 C49.1846481,25.9347974 49.0109619,26.1076308 48.7163412,26.3906494 C48.6745936,26.43078 48.6745936,26.43078 48.6332624,26.4705605 C47.8164933,27.2571824 47.5149588,27.6632221 47.4401022,28.1364991 C47.3667665,28.6033768 47.5342691,29.122423 48.0176235,30.0350669 C48.0722219,30.1378029 48.0722219,30.1378029 48.1277108,30.2415 C48.3202263,30.6012199 48.4253181,30.8053866 48.5345978,31.045521 C48.7778287,31.5800038 48.87338,31.8845927 48.7814092,32.2932922 L48.7480909,32.4085624 C48.6007031,32.8233649 48.3504052,33.0180074 47.8408874,33.3151937 C47.7459553,33.3705648 47.6434569,33.4270425 47.5329039,33.4853584 C47.3585883,33.5773085 47.2205805,33.6457535 46.9627768,33.7707301 C45.8353956,34.3150756 45.4250219,34.5984932 45.196811,35.0456043 C44.9678659,35.4939306 44.9804542,36.0220908 45.1980344,37.2474445 C45.2242055,37.3953364 45.2378784,37.4739555 45.2543738,37.5734963 C45.2734038,37.6883318 45.2900074,37.7953857 45.3045003,37.8984345 C45.4127636,38.668222 45.4233148,39.0223622 45.1708485,39.4289132 L45.0991265,39.5298725 C44.7854846,39.9180147 44.4381692,40.0179933 43.6288571,40.1565221 C43.4405678,40.1887513 43.2974436,40.2097329 43.0055824,40.2501004 C42.6574283,40.2982654 42.50876,40.3202603 42.324709,40.3528957 C41.6261385,40.4767643 41.1935274,40.6490786 40.9212153,40.9217944 C40.5668463,41.2753693 40.4167064,41.7798279 40.2469975,43.0096083 C40.2074687,43.2945736 40.1856481,43.4428776 40.1534577,43.63094 C40.0145979,44.4421855 39.917431,44.7831005 39.5347385,45.0960008 L39.2585339,45.3218336 L39.0408689,45.3218336 C38.9085864,45.3501935 38.7592835,45.3644296 38.5892137,45.3644296 C38.2373084,45.3644296 37.970177,45.326478 37.2458976,45.1983897 C36.1539191,45.0041917 35.4239669,45.0014936 35.0429877,45.1950064 C34.6211028,45.4113804 34.3222332,45.8266058 33.8472519,46.8012849 C33.8080907,46.881798 33.8080907,46.881798 33.7686236,46.9632418 C33.591434,47.3292144 33.4814223,47.5457574 33.3417311,47.7865446 C33.0237354,48.3346773 32.8046034,48.6131511 32.3568823,48.7581726 L32.2066503,48.8068343 L32.0487339,48.8068343 C31.5585422,48.8068343 31.2293765,48.6569332 30.2440758,48.1279936 C29.1784918,47.5585039 28.6179422,47.3656352 28.134279,47.4407901 C27.6620479,47.5144389 27.2568949,47.8151601 26.4702944,48.6318441 C26.4290876,48.6746545 26.4290876,48.6746545 26.3883561,48.7170223 C26.10897,49.0083489 25.9331972,49.1851429 25.7275971,49.3717226 C25.2437753,49.8107851 24.9699353,50 24.4994496,50 C24.0287168,50 23.7535536,49.8100537 23.2698208,49.3711225 C23.063462,49.1838758 22.8848084,49.0040991 22.608749,48.715865 C22.567182,48.6726249 22.567182,48.6726249 22.5259912,48.6298305 C21.7411827,47.8150039 21.3361416,47.5142913 20.8657272,47.4407262 L20.864412,47.4405196 C20.7928658,47.4292334 20.724099,47.4236274 20.6572946,47.4236274 C20.1995044,47.4236274 19.7550542,47.5943057 18.8321568,48.0872143 C18.794215,48.1074866 18.794215,48.1074866 18.7560039,48.1279177 C18.6370756,48.1915207 18.5795813,48.2221436 18.5093,48.2591091 C18.434611,48.2983929 18.3661685,48.3338157 18.3000552,48.3672867 C17.7214112,48.6602345 17.3371852,48.8068343 16.9273201,48.8068343 L16.7543139,48.8068343 L16.5913633,48.7487117 C16.1621221,48.5956063 15.965099,48.3339133 15.6496016,47.7789589 C15.5141852,47.5407639 15.4047996,47.3237853 15.2305553,46.9627253 C15.1920967,46.8831755 15.1920967,46.8831755 15.1540776,46.8048262 C14.6793214,45.8282643 14.3804305,45.4127053 13.9576107,45.1958865 C13.5772049,45.0017134 12.8480344,45.0042195 11.7552961,45.1971386 C11.0620894,45.3213692 10.764918,45.3634119 10.4112329,45.3634119 C10.2439742,45.3634119 10.0971945,45.349776 9.96738966,45.3228512 Z" id="Shape" stroke="#D3D3D3" stroke-width="2" fill="#FFFFFF"></path><path d="M13.9657921,25.181838 C13.1184082,28.5120161 13.2449233,31.5270445 15.8925328,34.1752995 C18.8098005,37.0925672 23.6632845,37.3570847 26.5805521,34.4398171 L35.1086211,25.9117481 C35.688677,25.3316921 35.7956341,24.4277637 35.2081128,23.8402424 C34.6246594,23.2567889 33.7202676,23.3560738 33.1366072,23.9397342 L28.5525661,28.5237753 L27.5665591,27.5377684 L34.2547076,20.8496199 C34.8396041,20.2647233 34.9152708,19.3920853 34.3277495,18.804564 C33.744296,18.2211106 32.8755184,18.2847813 32.2826937,18.877606 L26.2988359,24.8614638 L25.4004569,23.9630848 L32.8019193,16.5616224 C33.3818324,15.9817093 33.3830302,15.042682 32.7955089,14.4551608 C32.2120554,13.8717073 31.2628174,13.8749802 30.6890473,14.4487504 L22.5832942,22.5545035 L21.6505174,21.6217267 L28.3386659,14.9335782 C28.9194341,14.35281 28.9992291,13.4760436 28.4117078,12.8885224 C27.8282544,12.3050689 26.9180555,12.4101608 26.3340503,12.994166 L18.3,20.9 C18.4000242,17.9005525 19.2599878,13.7414347 17.1,13.7 C14.9400122,13.6585653 15.8465007,17.7907403 13.9657921,25.181838 Z M25.2733901,11.9335058 C26.4344916,10.7724044 28.2863008,10.641795 29.472368,11.8278622 C29.8073205,12.1628147 30.0398315,12.5489179 30.1747276,12.956711 C31.3247975,12.2508753 32.8583567,12.3966882 33.8561691,13.3945006 C34.8525894,14.3909209 35.0035484,15.9069031 34.3070206,17.0563541 C34.6972722,17.193907 35.0663651,17.4218593 35.3884097,17.7439039 C36.5723783,18.9278724 36.4797157,20.7459321 35.3153678,21.91028 L35.141527,22.0841208 C35.5496587,22.2164077 35.9354105,22.4462197 36.268773,22.7795822 C37.4567041,23.9675133 37.3286535,25.813036 36.1692812,26.9724083 L27.6412122,35.5004773 C24.1694229,38.9722666 18.3707934,38.7748804 14.8317434,35.2358304 C11.9987962,32.4021926 11.4288772,29.0690149 12.5121153,24.8119412 C12.902016,23.2796496 13.1920925,21.8065561 13.4313415,20.2426312 C13.5219343,19.6504438 13.6010729,19.0762797 13.6931662,18.3605802 C13.7198659,18.1530844 13.7483486,17.9285152 13.800368,17.517819 C13.8421486,17.1892388 13.8721966,16.9580447 13.9020869,16.737739 C14.3437904,13.4821743 14.9510234,12.1585006 17.128769,12.2002759 C18.7875567,12.2320962 19.6950553,13.398715 19.9559341,15.086081 C20.0475185,15.6784497 20.0734037,16.2667825 20.0453112,17.0781049 L25.2733901,11.9335058 Z M22.5832942,22.5545035 L21.6505174,21.6217267 L22.7111776,20.5610665 L23.6439544,21.4938433 L22.5832942,22.5545035 Z M28.5525661,28.5237753 L27.5665591,27.5377684 L28.6272193,26.4771082 L29.6132262,27.4631151 L28.5525661,28.5237753 Z" id="Combined-Shape" fill="#000000" fill-rule="nonzero"></path></g></g></g></svg> 